<svg width="148" height="148" viewBox="0 0 148 148" fill="none" xmlns="http://www.w3.org/2000/svg">
<g clip-path="url(#clip0_138_35)">
<path d="M0 148.436L10.439 110.322C3.98991 99.141 0.60242 86.4575 0.618 73.55C0.635 32.994 33.639 0 74.196 0C93.877 0.01 112.35 7.669 126.243 21.572C140.136 35.475 147.78 53.955 147.773 73.609C147.755 114.162 114.746 147.162 74.195 147.162H74.163C61.85 147.157 49.751 144.068 39.004 138.208L0 148.436Z" fill="white"/>
<path d="M74.2181 12.425C40.4851 12.425 13.0521 39.848 13.0401 73.555C13.0235 85.065 16.2647 96.3446 22.3891 106.09L23.8441 108.403L17.6651 130.961L40.8111 124.892L43.0461 126.216C52.4331 131.787 63.1961 134.733 74.1721 134.739H74.1951C107.902 134.739 135.335 107.313 135.348 73.604C135.374 65.5696 133.805 57.6099 130.733 50.1858C127.662 42.7617 123.148 36.0207 117.453 30.353C111.79 24.6543 105.053 20.1354 97.6315 17.0581C90.2102 13.9807 82.2521 12.406 74.2181 12.425Z" fill="url(#paint0_linear_138_35)"/>
<path fill-rule="evenodd" clip-rule="evenodd" d="M55.8061 42.801C54.4281 39.74 52.9781 39.678 51.6691 39.625L48.1451 39.582C46.9191 39.582 44.9271 40.042 43.2431 41.882C41.5591 43.722 36.8081 48.169 36.8081 57.214C36.8081 66.259 43.3961 74.999 44.3141 76.227C45.2321 77.455 57.0321 96.608 75.7191 103.977C91.2481 110.101 94.4081 108.883 97.7801 108.577C101.152 108.271 108.657 104.13 110.188 99.837C111.719 95.544 111.72 91.866 111.261 91.097C110.802 90.328 109.576 89.871 107.736 88.951C105.896 88.031 96.8591 83.584 95.1741 82.97C93.4891 82.356 92.2641 82.051 91.0371 83.891C89.8101 85.731 86.2911 89.87 85.2181 91.097C84.1451 92.324 83.0741 92.478 81.2341 91.559C79.3941 90.64 73.4741 88.698 66.4501 82.435C60.9851 77.562 57.2961 71.544 56.2221 69.705C55.1481 67.866 56.1081 66.87 57.0301 65.954C57.8551 65.13 58.8681 63.807 59.7891 62.734C60.7101 61.661 61.0131 60.894 61.6251 59.669C62.2371 58.444 61.9321 57.368 61.4721 56.449C61.0121 55.53 57.4401 46.437 55.8061 42.801Z" fill="white"/>
</g>
<defs>
<linearGradient id="paint0_linear_138_35" x1="72.9491" y1="19.765" x2="73.5691" y2="124.29" gradientUnits="userSpaceOnUse">
<stop stop-color="#57D163"/>
<stop offset="1" stop-color="#23B33A"/>
</linearGradient>
<clipPath id="clip0_138_35">
<rect width="148" height="148" fill="white"/>
</clipPath>
</defs>
</svg>
